Coordinates
version=1
nRows=16
nColumns=40
inDegrees=yes

Units are S.I. units (second, meters, Newtons, ...)
If the header above contains a line with 'inDegrees', this indicates whether rotational values are in degrees (yes) or radians (no).

endheader
time	pelvis_tilt	pelvis_list	pelvis_rotation	pelvis_tx	pelvis_ty	pelvis_tz	hip_flexion_r	hip_adduction_r	hip_rotation_r	knee_angle_r	knee_angle_r_beta	ankle_angle_r	subtalar_angle_r	mtp_angle_r	hip_flexion_l	hip_adduction_l	hip_rotation_l	knee_angle_l	knee_angle_l_beta	ankle_angle_l	subtalar_angle_l	mtp_angle_l	lumbar_extension	lumbar_bending	lumbar_rotation	arm_flex_r	arm_add_r	arm_rot_r	elbow_flex_r	pro_sup_r	wrist_flex_r	wrist_dev_r	arm_flex_l	arm_add_l	arm_rot_l	elbow_flex_l	pro_sup_l	wrist_flex_l	wrist_dev_l
      1.93000000	      1.12798490	     -7.25558222	     89.82878829	      0.21308573	      0.96953449	     -0.08171800	     14.27189553	      5.47488543	     -3.23912521	     14.37940752	      0.25096801	      1.11142388	      0.00000000	      0.00000000	     26.34386435	     -5.47952546	     -4.98592537	     64.74519036	      1.13001675	     -8.92484606	      0.00000000	      0.00000000	      2.08722891	     -0.03753162	      3.66200264	      0.00000000	      0.00000000	      0.00000000	      0.00000000	      0.00000000	      0.00000000	      0.00000000	      0.00000000	      0.00000000	      0.00000000	      0.00000000	      0.00000000	      0.00000000	      0.00000000
      1.94000000	      0.91928576	     -7.32971306	     89.82645430	      0.21360942	      0.97025238	     -0.09006519	     13.46284335	      5.30506638	     -3.15614114	     13.75685764	      0.24010246	      1.30953083	      0.00000000	      0.00000000	     27.42398514	     -5.29046710	     -5.10747121	     63.83282172	      1.11409291	     -7.43943301	      0.00000000	      0.00000000	      2.06519410	     -0.34072305	      3.84716288	      0.00000000	      0.00000000	      0.00000000	      0.00000000	      0.00000000	      0.00000000	      0.00000000	      0.00000000	      0.00000000	      0.00000000	      0.00000000	      0.00000000	      0.00000000	      0.00000000
      1.95000000	      0.71758057	     -7.41170235	     89.82274529	      0.21407165	      0.97085418	     -0.09845263	     12.65200643	      5.14045340	     -3.05977776	     13.11624400	      0.22892164	      1.50062684	      0.00000000	      0.00000000	     28.41341597	     -5.09029955	     -5.23055467	     62.62267517	      1.09297187	     -6.10027727	      0.00000000	      0.00000000	      2.05668984	     -0.63262413	      4.01377285	      0.00000000	      0.00000000	      0.00000000	      0.00000000	      0.00000000	      0.00000000	      0.00000000	      0.00000000	      0.00000000	      0.00000000	      0.00000000	      0.00000000	      0.00000000	      0.00000000
      1.96000000	      0.55206556	     -7.56827552	     89.81793891	      0.21449695	      0.97119225	     -0.10683894	     11.92940686	      5.00320374	     -3.05247559	     12.48784688	      0.21795404	      1.73231213	      0.00000000	     -0.00000000	     29.40271620	     -4.93050310	     -5.37087661	     61.14578517	      1.06719527	     -5.05078703	     -0.00000000	      0.00000000	      2.14043391	     -0.87875645	      4.17804454	      0.00000000	     -0.00000000	     -0.00000000	      0.00000000	      0.00000000	      0.00000000	     -0.00000000	     -0.00000000	      0.00000000	     -0.00000000	      0.00000000	      0.00000000	      0.00000000	      0.00000000
      1.97000000	      0.37262096	     -7.62856055	     89.80981476	      0.21485650	      0.97157076	     -0.11534080	     11.06778629	      4.86653964	     -2.85206241	     11.80863075	      0.20609949	      1.89809069	      0.00000000	      0.00000000	     30.15680050	     -4.72006508	     -5.49899649	     59.36135396	      1.03605108	     -3.89434163	      0.00000000	      0.00000000	      2.12753632	     -1.14278985	      4.29199436	      0.00000000	      0.00000000	      0.00000000	      0.00000000	      0.00000000	      0.00000000	      0.00000000	      0.00000000	      0.00000000	      0.00000000	      0.00000000	      0.00000000	      0.00000000	      0.00000000
      1.98000000	      0.25077283	     -7.56543634	     89.79842068	      0.21517837	      0.97197068	     -0.12398819	     10.03877825	      4.78689206	     -2.69571671	     11.07264902	      0.19325418	      2.04308497	      0.00000000	     -0.00000000	     30.66237659	     -4.58247059	     -5.66333952	     57.29232496	      0.99993971	     -3.01302710	     -0.00000000	     -0.00000000	      1.98506227	     -1.33144080	      4.41017646	      0.00000000	      0.00000000	     -0.00000000	      0.00000000	      0.00000000	      0.00000000	      0.00000000	      0.00000000	      0.00000000	     -0.00000000	      0.00000000	      0.00000000	      0.00000000	      0.00000000
      1.99000000	      0.14830780	     -7.60247588	     89.78693335	      0.21542809	      0.97205828	     -0.13263798	      9.14032041	      4.72029912	     -2.56030466	     10.38230866	      0.18120547	      2.22887253	      0.00000000	      0.00000000	     31.18506735	     -4.44991575	     -5.83518809	     54.97228629	      0.95944739	     -2.37721313	      0.00000000	      0.00000000	      1.95826221	     -1.49412394	      4.51179662	      0.00000000	      0.00000000	      0.00000000	      0.00000000	      0.00000000	      0.00000000	      0.00000000	      0.00000000	      0.00000000	      0.00000000	      0.00000000	      0.00000000	      0.00000000	      0.00000000
      2.00000000	      0.07078774	     -7.80346845	     89.77236045	      0.21561033	      0.97171281	     -0.14124876	      8.46117384	      4.67441291	     -2.41561196	      9.77846548	      0.17066642	      2.46073580	      0.00000000	      0.00000000	     31.80876487	     -4.33011819	     -6.00936333	     52.43776268	      0.91521161	     -1.86226134	      0.00000000	      0.00000000	      2.13010512	     -1.62062566	      4.57338422	      0.00000000	      0.00000000	      0.00000000	      0.00000000	      0.00000000	      0.00000000	      0.00000000	      0.00000000	      0.00000000	      0.00000000	      0.00000000	      0.00000000	      0.00000000	      0.00000000
      2.01000000	      0.01743964	     -7.71539802	     89.75180012	      0.21575634	      0.97165092	     -0.15011283	      7.40126752	      4.66012691	     -2.22479167	      9.06228433	      0.15816670	      2.62983725	      0.00000000	      0.00000000	     31.97256167	     -4.24523876	     -6.26092183	     49.60442737	      0.86576058	     -1.60490411	      0.00000000	      0.00000000	      1.97624368	     -1.71892206	      4.66691307	      0.00000000	      0.00000000	      0.00000000	      0.00000000	      0.00000000	      0.00000000	      0.00000000	      0.00000000	      0.00000000	      0.00000000	      0.00000000	      0.00000000	      0.00000000	      0.00000000
      2.02000000	     -0.01716175	     -7.79483017	     89.72335057	      0.21583094	      0.97115632	     -0.15892383	      6.57418748	      4.65779567	     -2.02556730	      8.44964390	      0.14747411	      2.84449395	      0.00000000	      0.00000000	     32.24348052	     -4.15914630	     -6.51814298	     46.57961110	      0.81296758	     -1.46669836	      0.00000000	      0.00000000	      2.01652125	     -1.78901017	      4.71048714	      0.00000000	      0.00000000	      0.00000000	      0.00000000	      0.00000000	      0.00000000	      0.00000000	      0.00000000	      0.00000000	      0.00000000	      0.00000000	      0.00000000	      0.00000000	      0.00000000
      2.03000000	      0.00325516	     -8.01408328	     89.69741667	      0.21582592	      0.97026396	     -0.16772649	      5.93538973	      4.70574378	     -1.84185756	      7.91744560	      0.13818549	      3.10511123	      0.00000000	      0.00000000	     32.60993906	     -4.10300344	     -6.75092837	     43.41798963	      0.75778687	     -1.34048931	      0.00000000	      0.00000000	      2.22762269	     -1.78444659	      4.73976124	      0.00000000	      0.00000000	      0.00000000	      0.00000000	      0.00000000	      0.00000000	      0.00000000	      0.00000000	      0.00000000	      0.00000000	      0.00000000	      0.00000000	      0.00000000	      0.00000000
      2.04000000	     -0.00799292	     -7.90513847	     89.65111145	      0.21576999	      0.96970859	     -0.17679487	      4.88173102	      4.71969313	     -1.60341058	      7.28595243	      0.12716386	      3.29767835	      0.00000000	      0.00000000	     32.46891717	     -4.02103467	     -7.11500709	     39.98062787	      0.69779359	     -1.52025403	      0.00000000	      0.00000000	      2.05368794	     -1.81383139	      4.79864529	      0.00000000	      0.00000000	      0.00000000	      0.00000000	      0.00000000	      0.00000000	      0.00000000	      0.00000000	      0.00000000	      0.00000000	      0.00000000	      0.00000000	      0.00000000	      0.00000000
      2.05000000	      0.02769666	     -8.14051372	     89.60116201	      0.21561062	      0.96843596	     -0.18572299	      4.29129251	      4.77205105	     -1.37096315	      6.83097490	      0.11922300	      3.58275744	      0.00000000	     -0.00000000	     32.68713331	     -3.93433111	     -7.37719427	     36.50157853	      0.63707273	     -1.56490017	      0.00000000	     -0.00000000	      2.29099906	     -1.78878073	      4.81572658	      0.00000000	     -0.00000000	     -0.00000000	      0.00000000	      0.00000000	     -0.00000000	      0.00000000	     -0.00000000	     -0.00000000	     -0.00000000	      0.00000000	      0.00000000	      0.00000000	      0.00000000
      2.06000000	      0.04953281	     -8.04895008	     89.52427879	      0.21541189	      0.96751383	     -0.19493803	      3.29671959	      4.80519998	     -1.15879087	      6.30258173	      0.11000080	      3.83308525	      0.00000000	      0.00000000	     32.42314209	     -3.83751613	     -7.77872780	     32.83861170	      0.57314190	     -1.83571531	      0.00000000	      0.00000000	      2.14893908	     -1.75721185	      4.87591780	      0.00000000	      0.00000000	      0.00000000	      0.00000000	      0.00000000	      0.00000000	      0.00000000	      0.00000000	      0.00000000	      0.00000000	      0.00000000	      0.00000000	      0.00000000	      0.00000000
      2.07000000	      0.15475992	     -8.34822233	     89.45303352	      0.21505827	      0.96581851	     -0.20399839	      2.81972966	      4.91502127	     -0.91506295	      5.95772968	      0.10398200	      4.14926896	      0.00000000	      0.00000000	     32.60668039	     -3.72418065	     -7.85704002	     29.26115782	      0.51070355	     -1.72423596	      0.00000000	      0.00000000	      2.46896130	     -1.60935120	      4.93484281	      0.00000000	      0.00000000	      0.00000000	      0.00000000	      0.00000000	      0.00000000	      0.00000000	      0.00000000	      0.00000000	      0.00000000	      0.00000000	      0.00000000	      0.00000000	      0.00000000
      2.08000000	      0.18090623	     -8.44481377	     89.34881421	      0.21465143	      0.96427874	     -0.21326852	      2.11265230	      4.92759870	     -0.67473477	      5.61072898	      0.09792569	      4.49319799	      0.00000000	      0.00000000	     32.45673141	     -3.52594685	     -8.01907677	     25.56410203	      0.44617775	     -1.80408978	      0.00000000	      0.00000000	      2.55941738	     -1.56194790	      4.98462562	      0.00000000	      0.00000000	      0.00000000	      0.00000000	      0.00000000	      0.00000000	      0.00000000	      0.00000000	      0.00000000	      0.00000000	      0.00000000	      0.00000000	      0.00000000	      0.00000000
